<?xml version="1.0" standalone="no"?>
<!DOCTYPE svg PUBLIC "-//W3C//DTD SVG 20010904//EN"
 "http://www.w3.org/TR/2001/REC-SVG-20010904/DTD/svg10.dtd">
<svg version="1.0" xmlns="http://www.w3.org/2000/svg"
 width="334.000000pt" height="324.000000pt" viewBox="0 0 334.000000 324.000000"
 preserveAspectRatio="xMidYMid meet">

<g transform="translate(0.000000,324.000000) scale(0.100000,-0.100000)"
fill="#000000" stroke="none">
<path d="M1530 3220 c-453 -47 -857 -266 -1129 -610 -385 -488 -455 -1144
-180 -1695 64 -128 97 -180 180 -285 165 -210 389 -379 636 -483 494 -206
1035 -170 1495 99 155 91 321 236 437 384 385 488 455 1144 180 1695 -64 128
-97 180 -180 285 -215 272 -523 472 -862 559 -189 49 -408 68 -577 51z m300
-369 c19 -14 26 -28 28 -63 3 -39 -1 -49 -23 -66 l-26 -21 20 -20 c16 -16 21
-34 21 -76 l0 -55 -34 0 c-36 0 -43 12 -44 80 -1 32 -27 50 -74 50 l-38 0 0
-61 0 -60 -37 3 -38 3 3 130 c2 72 5 143 8 159 l6 28 102 -7 c72 -5 108 -11
126 -24z m314 -64 c61 -24 111 -48 113 -53 2 -5 -3 -18 -11 -29 -13 -18 -16
-18 -90 13 -73 29 -76 30 -86 12 -19 -36 -10 -47 60 -74 63 -25 70 -30 64 -50
-4 -11 -8 -23 -10 -25 -2 -2 -36 8 -75 23 -40 15 -76 23 -80 19 -4 -4 -10 -20
-14 -34 -6 -24 -2 -27 72 -56 62 -25 77 -35 75 -49 -2 -11 -7 -23 -12 -28 -10
-11 -230 73 -230 88 0 16 106 286 112 286 2 0 52 -19 112 -43z m-728 14 c46
-28 78 -100 71 -164 -6 -68 -46 -105 -153 -141 -43 -14 -82 -26 -86 -26 -9 0
-102 289 -96 296 3 2 36 15 74 28 85 30 148 32 190 7z m-308 -265 l80 -99 -48
-39 -49 -39 -122 61 -122 62 64 -79 c101 -122 94 -111 74 -133 -10 -11 -23
-20 -29 -20 -6 0 -55 54 -108 119 l-97 119 44 36 c24 20 49 36 57 36 7 -1 64
-27 125 -59 62 -31 109 -53 104 -47 -4 6 -38 48 -74 92 -37 45 -67 86 -67 92
0 5 10 16 23 25 27 19 29 17 145 -127z m1418 19 l42 -35 -59 -147 c-32 -81
-63 -151 -67 -155 -5 -5 -19 3 -31 16 -20 21 -22 29 -13 55 10 28 8 32 -38 75
-27 25 -52 46 -55 46 -3 0 -17 -7 -31 -17 -24 -16 -26 -15 -52 12 -15 15 -22
29 -17 32 6 2 69 37 140 78 72 40 132 74 134 74 2 1 23 -15 47 -34z m-837
-287 c-2 -248 -14 -289 -21 -73 -5 189 -4 215 13 215 5 0 9 -64 8 -142z m-381
10 c29 -47 172 -319 172 -326 0 -4 -47 69 -105 162 -58 93 -105 175 -105 183
0 23 18 14 38 -19z m491 -150 c-23 -81 -44 -146 -46 -145 -5 6 56 280 69 307
10 22 12 23 16 6 2 -11 -15 -86 -39 -168z m291 173 c0 -5 -30 -57 -66 -117
-37 -60 -83 -135 -102 -166 -19 -32 -36 -58 -39 -58 -6 0 145 287 169 323 19
26 38 36 38 18z m-538 -152 c21 -79 36 -148 35 -153 -2 -5 -22 54 -46 130 -57
186 -55 177 -40 172 8 -3 29 -64 51 -149z m1219 104 c34 -29 68 -94 69 -131 0
-32 -27 -82 -45 -82 -23 0 -36 36 -29 80 8 47 -15 90 -47 90 -31 0 -34 -27
-10 -99 25 -75 20 -107 -21 -135 -26 -18 -80 -21 -109 -6 -10 6 -32 34 -49 63
-39 68 -40 123 -4 162 l26 28 20 -31 c18 -29 18 -33 4 -48 -22 -21 -20 -56 5
-88 47 -60 87 -8 55 69 -24 56 -20 101 9 130 33 34 84 33 126 -2z m-1883 -38
l33 -6 -18 -30 c-14 -24 -24 -29 -54 -29 -35 0 -39 -3 -68 -56 l-30 -57 20
-28 c19 -27 19 -30 4 -60 -14 -26 -19 -29 -30 -18 -67 71 -205 233 -205 241 0
5 11 29 25 52 l25 43 133 -23 c72 -13 147 -26 165 -29z m1308 -97 c-9 -13 -64
-68 -123 -122 -59 -55 -96 -87 -82 -70 114 130 194 214 206 214 11 0 11 -4 -1
-22z m-1024 -7 c13 -11 69 -68 123 -127 l100 -109 -127 114 c-117 105 -150
141 -129 141 5 0 19 -9 33 -19z m-41 -217 c159 -99 215 -140 119 -87 -30 17
-103 56 -162 87 -59 32 -117 66 -130 76 -23 19 -23 19 -2 20 11 0 90 -43 175
-96z m1279 88 c0 -4 -10 -14 -22 -22 -39 -24 -331 -180 -334 -177 -3 2 83 57
250 159 75 46 106 57 106 40z m-613 -418 l112 -239 -30 -3 c-46 -5 -55 2 -82
62 -29 63 -29 63 -154 50 l-60 -7 -24 -51 c-23 -49 -26 -51 -68 -54 -33 -3
-42 0 -38 10 48 123 214 477 222 475 5 -2 60 -111 122 -243z m617 206 c-11
-11 -316 -92 -322 -86 -2 2 59 24 135 49 134 44 208 58 187 37z m-1307 -46
c73 -21 131 -39 129 -41 -4 -4 -228 43 -274 58 -32 11 -36 34 -4 25 10 -2 77
-21 149 -42z m-540 -174 c26 0 26 0 7 -21 -11 -12 -17 -32 -16 -46 3 -22 1
-25 -15 -18 -21 9 -30 9 -61 -1 -21 -6 -22 -4 -17 18 4 16 1 29 -9 37 -23 19
-20 31 7 31 16 0 28 9 36 27 l13 28 14 -28 c10 -19 22 -27 41 -27z m2303 8 c0
-4 11 -8 25 -8 29 0 32 -12 9 -31 -9 -8 -14 -22 -11 -37 4 -20 2 -23 -17 -17
-28 9 -38 9 -58 0 -15 -6 -18 -2 -18 21 0 15 -7 36 -17 46 -15 17 -15 18 11
18 19 0 30 7 38 26 11 24 13 25 25 8 7 -10 13 -21 13 -26z m-1761 10 l116 -1
-85 -8 c-124 -10 -350 -11 -350 0 0 17 25 21 114 16 49 -3 141 -6 205 -7z
m1438 6 c13 -4 20 -10 17 -15 -6 -11 -221 -12 -330 -1 -77 7 -75 7 71 12 83 3
166 7 185 8 19 1 45 -1 57 -4z m-1288 -128 c-9 -8 -288 -86 -310 -86 -56 0 9
25 143 56 141 31 175 38 167 30z m1015 -49 c76 -19 131 -38 134 -46 6 -18 -19
-12 -188 44 -149 50 -139 50 54 2z m-1034 -99 c-117 -75 -272 -168 -281 -168
-18 0 -8 20 18 37 40 27 307 171 318 172 6 0 -19 -18 -55 -41z m1119 -118 c45
-26 64 -50 40 -50 -12 0 -314 184 -334 203 -11 11 220 -109 294 -153z m-1099
-75 c-109 -110 -130 -126 -130 -106 0 11 226 221 237 221 4 0 -44 -52 -107
-115z m864 -24 c49 -50 86 -94 83 -97 -10 -10 -40 17 -138 126 -110 122 -74
103 55 -29z m-138 -78 c98 -160 115 -193 96 -193 -6 0 -29 30 -50 68 -57 98
-153 282 -148 282 2 0 48 -71 102 -157z m-576 30 c-106 -201 -140 -252 -140
-209 0 17 186 326 197 326 2 0 -23 -53 -57 -117z m347 95 c-3 -8 -6 -5 -6 6
-1 11 2 17 5 13 3 -3 4 -12 1 -19z m-192 -104 c-34 -146 -55 -208 -66 -197 -6
6 9 69 38 160 26 84 49 150 51 149 1 -2 -9 -52 -23 -112z m124 -166 c1 -82 -3
-148 -8 -148 -16 0 -18 34 -12 220 6 215 18 171 20 -72z m138 40 c15 -59 14
-92 -2 -76 -7 6 -65 265 -64 281 1 15 42 -114 66 -205z m-857 -146 c0 -25 -9
-43 -34 -68 -47 -47 -88 -46 -144 2 -23 19 -42 40 -42 46 0 6 28 41 63 78 l62
67 48 -45 c38 -37 47 -53 47 -80z m1548 54 c2 -17 9 -26 21 -26 10 0 28 -11
41 -25 18 -19 21 -28 12 -37 -9 -9 -17 -7 -35 10 -29 27 -45 27 -76 1 l-24
-20 28 -29 c24 -26 27 -50 5 -50 -4 0 -36 32 -71 71 l-63 72 39 34 c22 19 49
39 60 43 27 11 59 -11 63 -44z m-188 -85 c0 -4 -18 -17 -40 -30 -49 -27 -54
-35 -40 -61 11 -21 11 -21 57 5 29 18 48 24 55 17 6 -6 -7 -19 -36 -36 -42
-25 -45 -28 -34 -51 14 -31 19 -31 68 0 42 27 60 31 60 15 0 -10 -104 -80
-118 -80 -10 0 -102 143 -102 158 0 6 26 26 57 45 53 33 73 38 73 18z m-1221
-27 c34 -20 61 -40 61 -44 0 -19 -16 -16 -62 12 -47 29 -50 30 -63 12 -21 -27
-20 -29 31 -59 32 -19 43 -30 35 -38 -7 -7 -22 -2 -50 16 -22 15 -42 27 -45
27 -2 0 -11 -11 -20 -24 -15 -24 -15 -25 34 -55 46 -28 64 -51 41 -51 -22 0
-130 73 -124 84 21 38 96 156 98 156 2 0 31 -16 64 -36z m122 -157 c-1 -48 -1
-87 1 -87 2 0 28 29 58 65 50 60 80 81 80 54 0 -13 -121 -154 -132 -153 -4 1
-15 2 -23 3 -12 1 -15 20 -15 107 0 94 2 105 17 102 15 -3 17 -14 14 -91z
m944 52 c15 -28 15 -33 0 -55 -8 -13 -31 -30 -50 -39 l-36 -14 15 -36 c14 -32
14 -37 0 -42 -8 -3 -16 -4 -18 -2 -7 10 -66 165 -66 175 0 15 67 42 107 43 27
1 35 -5 48 -30z m-679 -41 c44 -8 64 -16 64 -26 0 -14 -24 -13 -97 5 -20 4
-23 1 -23 -26 0 -29 2 -31 50 -37 32 -4 50 -11 50 -20 0 -16 -8 -16 -67 -5
-39 7 -42 6 -48 -16 -8 -34 -2 -40 55 -47 35 -5 50 -11 50 -22 0 -12 -8 -14
-37 -8 -88 15 -104 20 -104 29 -3 32 26 185 34 185 5 0 38 -5 73 -12z m443 -2
c33 -18 51 -54 51 -106 0 -30 -6 -43 -31 -64 -52 -44 -125 -33 -154 24 -31 60
-15 122 38 145 41 18 62 18 96 1z m-289 -101 l0 -85 51 0 c36 0 49 -4 47 -12
-3 -9 -26 -13 -69 -13 l-64 0 -3 98 c-3 92 -2 97 18 97 19 0 20 -6 20 -85z"/>
<path d="M1670 2776 l0 -46 44 0 c45 0 76 18 76 44 0 22 -24 36 -74 42 l-46 7
0 -47z"/>
<path d="M1273 2748 c-18 -6 -33 -16 -33 -21 0 -6 12 -48 27 -94 26 -80 29
-84 53 -78 79 20 106 57 89 121 -21 76 -59 96 -136 72z"/>
<path d="M2423 2478 c-29 -16 -53 -33 -53 -37 0 -10 59 -66 64 -60 9 10 54
129 48 128 -4 -1 -31 -15 -59 -31z"/>
<path d="M654 2139 c27 -30 51 -56 52 -57 3 -4 44 73 44 81 0 3 -21 8 -47 12
-27 3 -59 9 -73 12 -22 5 -19 0 24 -48z"/>
<path d="M1661 1618 c-5 -13 -16 -40 -25 -62 -9 -21 -16 -40 -16 -42 0 -2 27
-4 60 -4 33 0 60 2 60 5 0 10 -60 125 -65 125 -3 0 -9 -10 -14 -22z"/>
<path d="M831 779 l-45 -52 28 -23 c15 -13 38 -24 50 -24 30 0 76 46 76 75 0
25 -35 75 -53 75 -7 0 -32 -23 -56 -51z"/>
<path d="M2423 796 l-28 -25 23 -23 23 -23 30 33 c24 27 28 36 18 48 -17 20
-34 17 -66 -10z"/>
<path d="M2078 579 c-21 -12 -23 -29 -5 -53 13 -17 15 -17 46 -2 24 13 31 23
29 39 -3 25 -41 34 -70 16z"/>
<path d="M1853 520 c-24 -10 -28 -23 -24 -75 5 -51 18 -65 61 -65 50 0 76 33
66 82 -12 60 -48 80 -103 58z"/>
</g>
</svg>
